<svg width="63" height="63" viewBox="0 0 63 63" fill="none" xmlns="http://www.w3.org/2000/svg">
<path xmlns="http://www.w3.org/2000/svg" d="M0 0 C0 0.66 0 1.32 0 2 C0.928125 2.185625 0.928125 2.185625 1.875 2.375 C4 3 4 3 6 5 C6.4140625 7.8203125 6.4140625 7.8203125 6.625 11.125 C6.69976562 12.22070312 6.77453125 13.31640625 6.8515625 14.4453125 C6.92503906 15.70988281 6.92503906 15.70988281 7 17 C6.34 17 5.68 17 5 17 C4.87625 17.78375 4.7525 18.5675 4.625 19.375 C4 22 4 22 2 24 C2.99 24 3.98 24 5 24 C5.33 23.34 5.66 22.68 6 22 C8.8125 21.8125 8.8125 21.8125 12 22 C13.625 23.4375 13.625 23.4375 15 25 C17.10332891 25.71447643 17.10332891 25.71447643 19 26 C20.09643751 30.93396878 20.09643751 35.06603122 19 40 C14.25 41 14.25 41 12 41 C12 41.99 12 42.98 12 44 C9.1875 44.1875 9.1875 44.1875 6 44 C5.54906982 43.51168701 5.09813965 43.02337402 4.63354492 42.52026367 C2.35373006 40.39854686 0.75271516 40.57327942 -2.32421875 40.48828125 C-3.86625977 40.43510742 -3.86625977 40.43510742 -5.43945312 40.38085938 C-7.04723633 40.34702148 -7.04723633 40.34702148 -8.6875 40.3125 C-10.31268555 40.26125977 -10.31268555 40.26125977 -11.97070312 40.20898438 C-14.6470322 40.1264544 -17.32303159 40.05732063 -20 40 C-20.21875 34.34375 -20.21875 34.34375 -18.25 31.25 C-16.1636616 29.1636616 -14.75427871 27.9773247 -12 27 C-11.01 27 -10.02 27 -9 27 C-9.66 25.906875 -10.32 24.81375 -11 23.6875 C-12.58464929 21.06292462 -13 20.1743622 -13 17 C-13.66 17 -14.32 17 -15 17 C-14.7904119 6.2919534 -14.7904119 6.2919534 -12 2.3125 C-7.95233322 -0.80757648 -4.9322138 -0.58026045 0 0 Z M7 31 C7 32.32 7 33.64 7 35 C8.32 35 9.64 35 11 35 C11 33.68 11 32.36 11 31 C9.68 31 8.36 31 7 31 Z " fill="#F8B149" transform="translate(28,4)"/>
<path xmlns="http://www.w3.org/2000/svg" d="M0 0 C3.36990085 0.42123761 3.85259503 0.93476708 6 3.375 C8.10332891 4.08947643 8.10332891 4.08947643 10 4.375 C11.09643751 9.30896878 11.09643751 13.44103122 10 18.375 C5.25 19.375 5.25 19.375 3 19.375 C3 20.365 3 21.355 3 22.375 C0.1875 22.5625 0.1875 22.5625 -3 22.375 C-3.45093018 21.88668701 -3.90186035 21.39837402 -4.36645508 20.89526367 C-6.64626994 18.77354686 -8.24728484 18.94827942 -11.32421875 18.86328125 C-12.86625977 18.81010742 -12.86625977 18.81010742 -14.43945312 18.75585938 C-16.04723633 18.72202148 -16.04723633 18.72202148 -17.6875 18.6875 C-18.77095703 18.65333984 -19.85441406 18.61917969 -20.97070312 18.58398438 C-23.6470322 18.5014544 -26.32303159 18.43232063 -29 18.375 C-29.21875 12.71875 -29.21875 12.71875 -27.25 9.625 C-25.1636616 7.5386616 -23.75427871 6.3523247 -21 5.375 C-20.01 5.375 -19.02 5.375 -18 5.375 C-17.32880451 6.8312545 -16.66318193 8.29007867 -16 9.75 C-15.443125 10.96816406 -15.443125 10.96816406 -14.875 12.2109375 C-14 14.375 -14 14.375 -14 16.375 C-13.34 16.375 -12.68 16.375 -12 16.375 C-11.90203125 15.60414062 -11.8040625 14.83328125 -11.703125 14.0390625 C-11.55359375 13.03617188 -11.4040625 12.03328125 -11.25 11 C-11.11078125 10.00226562 -10.9715625 9.00453125 -10.828125 7.9765625 C-10 5.375 -10 5.375 -8.0078125 4.125 C-7.34523438 3.8775 -6.68265625 3.63 -6 3.375 C-5.54625 2.83875 -5.0925 2.3025 -4.625 1.75 C-3 0.375 -3 0.375 0 0 Z M-2 9.375 C-2 10.695 -2 12.015 -2 13.375 C-0.68 13.375 0.64 13.375 2 13.375 C2 12.055 2 10.735 2 9.375 C0.68 9.375 -0.64 9.375 -2 9.375 Z " fill="#5F7B8B" transform="translate(37,25.625)"/>
<path xmlns="http://www.w3.org/2000/svg" d="M0 0 C0.67119549 1.4562545 1.33681807 2.91507867 2 4.375 C2.556875 5.59316406 2.556875 5.59316406 3.125 6.8359375 C4 9 4 9 4 11 C4.66 11 5.32 11 6 11 C6.66 8.69 7.32 6.38 8 4 C8.66 4 9.32 4 10 4 C9.67 6.97 9.34 9.94 9 13 C2.4 13 -4.2 13 -11 13 C-11 7 -11 7 -9.25 4.25 C-6.17071035 1.17071035 -4.37024862 0 0 0 Z " fill="#3F50B2" transform="translate(19,31)"/>
<path xmlns="http://www.w3.org/2000/svg" d="M0 0 C0.59167969 0.06960938 1.18335938 0.13921875 1.79296875 0.2109375 C1.79296875 0.8709375 1.79296875 1.5309375 1.79296875 2.2109375 C2.41171875 2.3346875 3.03046875 2.4584375 3.66796875 2.5859375 C5.79296875 3.2109375 5.79296875 3.2109375 7.79296875 5.2109375 C7.98828125 7.375 7.98828125 7.375 7.91796875 9.8359375 C7.89992188 10.65320312 7.881875 11.47046875 7.86328125 12.3125 C7.84007813 12.93898438 7.816875 13.56546875 7.79296875 14.2109375 C6.80296875 14.7059375 6.80296875 14.7059375 5.79296875 15.2109375 C5.13296875 12.9009375 4.47296875 10.5909375 3.79296875 8.2109375 C0.36353356 7.02322027 -1.584878 7.40867527 -4.95703125 8.6484375 C-5.75625 8.93589844 -6.55546875 9.22335937 -7.37890625 9.51953125 C-7.9821875 9.74769531 -8.58546875 9.97585938 -9.20703125 10.2109375 C-9.53703125 11.8609375 -9.86703125 13.5109375 -10.20703125 15.2109375 C-10.86703125 14.8809375 -11.52703125 14.5509375 -12.20703125 14.2109375 C-12.87667411 6.44308036 -12.87667411 6.44308036 -10.26953125 2.7109375 C-6.54068602 -0.33301779 -4.64296516 -0.31811507 0 0 Z " fill="#444341" transform="translate(26.20703125,3.7890625)"/>
<path xmlns="http://www.w3.org/2000/svg" d="M0 0 C2 3 2 3 1.8125 6.0625 C1 9 1 9 -2 11 C-4.5 11.375 -4.5 11.375 -7 11 C-9.2855347 8.87208838 -9.92303658 7.52591672 -10.375 4.4375 C-10 2 -10 2 -8.9375 0.125 C-5.79705307 -1.69848531 -3.4014687 -0.8658284 0 0 Z M-6 3 C-6 4.32 -6 5.64 -6 7 C-4.68 7 -3.36 7 -2 7 C-2 5.68 -2 4.36 -2 3 C-3.32 3 -4.64 3 -6 3 Z " fill="#465B65" transform="translate(41,32)"/>
<path xmlns="http://www.w3.org/2000/svg" d="M0 0 C3.3 0 6.6 0 10 0 C9.52372025 1.95903745 9.04388577 3.91721097 8.5625 5.875 C8.29566406 6.96554688 8.02882813 8.05609375 7.75390625 9.1796875 C7 12 7 12 6 14 C5.34 14 4.68 14 4 14 C3.32157861 12.60984189 2.657771 11.2125473 2 9.8125 C1.62875 9.03519531 1.2575 8.25789063 0.875 7.45703125 C0 5 0 5 0 0 Z " fill="#F6AB48" transform="translate(19,28)"/>
<path xmlns="http://www.w3.org/2000/svg" d="M0 0 C0.66 0 1.32 0 2 0 C2 1.32 2 2.64 2 4 C2.66 4.33 3.32 4.66 4 5 C3.34 6.32 2.68 7.64 2 9 C1.34 9 0.68 9 0 9 C-1.10844919 5.67465243 -0.84454356 3.37817425 0 0 Z " fill="#D0494E" transform="translate(23,33)"/>
<path xmlns="http://www.w3.org/2000/svg" d="M0 0 C1.32 0.33 2.64 0.66 4 1 C4 2.98 4 4.96 4 7 C1.49962266 4.82575883 0.56371414 3.26954202 0 0 Z " fill="#F0DEDE" transform="translate(19,31)"/>
</svg>
