<svg width="63" height="63" viewBox="0 0 63 63" fill="none" xmlns="http://www.w3.org/2000/svg">
<path xmlns="http://www.w3.org/2000/svg" d="M0 0 C3.1727822 0.76299372 4.78499519 3.13366668 6.94921875 5.46875 C10.13072767 6.34864974 10.13072767 6.34864974 12.94921875 6.46875 C12.94921875 7.12875 12.94921875 7.78875 12.94921875 8.46875 C17.23921875 8.46875 21.52921875 8.46875 25.94921875 8.46875 C25.94921875 21.00875 25.94921875 33.54875 25.94921875 46.46875 C18.68921875 46.46875 11.42921875 46.46875 3.94921875 46.46875 C3.94921875 48.44875 3.94921875 50.42875 3.94921875 52.46875 C5.92921875 52.46875 7.90921875 52.46875 9.94921875 52.46875 C9.94921875 53.78875 9.94921875 55.10875 9.94921875 56.46875 C2.02921875 56.46875 -5.89078125 56.46875 -14.05078125 56.46875 C-14.05078125 55.14875 -14.05078125 53.82875 -14.05078125 52.46875 C-12.07078125 52.46875 -10.09078125 52.46875 -8.05078125 52.46875 C-8.05078125 50.48875 -8.05078125 48.50875 -8.05078125 46.46875 C-15.31078125 46.46875 -22.57078125 46.46875 -30.05078125 46.46875 C-30.05078125 33.92875 -30.05078125 21.38875 -30.05078125 8.46875 C-25.76078125 8.46875 -21.47078125 8.46875 -17.05078125 8.46875 C-17.05078125 7.80875 -17.05078125 7.14875 -17.05078125 6.46875 C-15.97828125 6.22125 -14.90578125 5.97375 -13.80078125 5.71875 C-10.03997076 4.8040183 -10.03997076 4.8040183 -8.11328125 2.34375 C-5.51299371 -0.02014776 -3.46197974 -0.15358136 0 0 Z " fill="#08A2C8" transform="translate(34.05078125,3.53125)"/>
<path xmlns="http://www.w3.org/2000/svg" d="M0 0 C2.97 0 5.94 0 9 0 C11.26217228 4.52434457 11.26217228 4.52434457 11.1875 8 C11.16623047 9.04220703 11.16623047 9.04220703 11.14453125 10.10546875 C11 12 11 12 10.375 14.3125 C10.25125 14.869375 10.1275 15.42625 10 16 C10.66 16.99 11.32 17.98 12 19 C13.98985949 19.38932033 15.99199544 19.71887936 18 20 C20.375 21.0625 20.375 21.0625 22 22 C22 23.32 22 24.64 22 26 C24.64 26 27.28 26 30 26 C30 24.68 30 23.36 30 22 C33.46442992 19.22845607 35.70963716 19 40 19 C40.66 18.01 41.32 17.02 42 16 C41.7018576 14.65835921 41.35858516 13.32676508 41 12 C40.89846513 10.66906999 40.83973509 9.33451949 40.8125 8 C40.79832031 7.34 40.78414062 6.68 40.76953125 6 C41 4 41 4 43 0 C45.97 0 48.94 0 52 0 C52 9.9 52 19.8 52 30 C34.84 30 17.68 30 0 30 C0 20.1 0 10.2 0 0 Z " fill="#E6B5AE" transform="translate(6,14)"/>
<path xmlns="http://www.w3.org/2000/svg" d="M0 0 C3.96220871 3.3961789 4.49510792 4.90778181 5 10.125 C4.88735068 14.43785966 3.45117939 16.95279071 0.625 20.25 C-2.4031958 22.6292967 -5.62269379 22.61275446 -9.4140625 22.5 C-13.46439304 21.9836232 -15.65073074 20.12411808 -18.1875 17.0625 C-19.73720573 13.39214432 -20.06733655 10.13773603 -19.375 6.25 C-17.76576503 3.14647542 -16.37152733 1.03298576 -13.625 -1.125 C-8.40862133 -2.57399408 -4.72603481 -2.45053657 0 0 Z " fill="#ECE6E0" transform="translate(39.375,11.75)"/>
<path xmlns="http://www.w3.org/2000/svg" d="M0 0 C3.1727822 0.76299372 4.78499519 3.13366668 6.94921875 5.46875 C10.13072767 6.34864974 10.13072767 6.34864974 12.94921875 6.46875 C13.60921875 8.77875 14.26921875 11.08875 14.94921875 13.46875 C14.61921875 13.79875 14.28921875 14.12875 13.94921875 14.46875 C13.70668756 19.66890522 13.70668756 19.66890522 14.63671875 24.71875 C14.94921875 26.46875 14.94921875 26.46875 13.82421875 28.71875 C11.94921875 30.46875 11.94921875 30.46875 9.57421875 30.59375 C8.27484375 30.531875 8.27484375 30.531875 6.94921875 30.46875 C4.21147257 31.39620649 4.21147257 31.39620649 1.94921875 32.46875 C1.94921875 33.78875 1.94921875 35.10875 1.94921875 36.46875 C-0.69078125 36.46875 -3.33078125 36.46875 -6.05078125 36.46875 C-6.05078125 35.14875 -6.05078125 33.82875 -6.05078125 32.46875 C-6.56640625 32.345 -7.08203125 32.22125 -7.61328125 32.09375 C-8.41765625 31.8875 -9.22203125 31.68125 -10.05078125 31.46875 C-11.24703125 31.18 -12.44328125 30.89125 -13.67578125 30.59375 C-17.05078125 29.46875 -17.05078125 29.46875 -19.05078125 26.46875 C-18.75263885 25.12710921 -18.40936641 23.79551508 -18.05078125 22.46875 C-17.83264563 18.62021435 -17.81888528 15.16443792 -19.05078125 11.46875 C-18.55078125 8.90625 -18.55078125 8.90625 -17.05078125 6.46875 C-14.73607213 5.74004528 -12.40018655 5.07635482 -10.05078125 4.46875 C-9.41140625 3.7675 -8.77203125 3.06625 -8.11328125 2.34375 C-5.51299371 -0.02014776 -3.46197974 -0.15358136 0 0 Z M-13.42578125 12.21875 C-14.87477533 17.43512867 -14.75131782 21.11771519 -12.30078125 25.84375 C-8.90460235 29.80595871 -7.39299944 30.33885792 -2.17578125 30.84375 C2.13707841 30.73110068 4.65200946 29.29492939 7.94921875 26.46875 C10.29703016 23.48062638 10.36746956 20.24963812 10.26953125 16.5 C9.62701357 12.42549762 7.37779413 9.59120209 4.19921875 7.09375 C-2.97962486 5.09962677 -8.66905174 6.16473063 -13.42578125 12.21875 Z " fill="#105377" transform="translate(34.05078125,3.53125)"/>
<path xmlns="http://www.w3.org/2000/svg" d="M0 0 C2.97 0 5.94 0 9 0 C9 9.24 9 18.48 9 28 C5.32875 28.020625 1.6575 28.04125 -2.125 28.0625 C-3.2711377 28.071604 -4.41727539 28.08070801 -5.59814453 28.09008789 C-10.50844094 28.10343343 -15.17670115 28.05979058 -20 27 C-20 26.67 -20 26.34 -20 26 C-17.69 26 -15.38 26 -13 26 C-13 24.68 -13 23.36 -13 22 C-9.53557008 19.22845607 -7.29036284 19 -3 19 C-2.34 18.01 -1.68 17.02 -1 16 C-1.2981424 14.65835921 -1.64141484 13.32676508 -2 12 C-2.10153487 10.66906999 -2.16026491 9.33451949 -2.1875 8 C-2.20167969 7.34 -2.21585938 6.68 -2.23046875 6 C-2 4 -2 4 0 0 Z " fill="#EAE0D4" transform="translate(49,14)"/>
<path xmlns="http://www.w3.org/2000/svg" d="M0 0 C3.96 0 7.92 0 12 0 C12 1.98 12 3.96 12 6 C13.98 6 15.96 6 18 6 C18 7.32 18 8.64 18 10 C10.08 10 2.16 10 -6 10 C-6 8.68 -6 7.36 -6 6 C-4.02 6 -2.04 6 0 6 C0 4.02 0 2.04 0 0 Z " fill="#009FC7" transform="translate(26,50)"/>
<path xmlns="http://www.w3.org/2000/svg" d="M0 0 C3.96220871 3.3961789 4.49510792 4.90778181 5 10.125 C4.88735068 14.43785966 3.45117939 16.95279071 0.625 20.25 C-2.4031958 22.6292967 -5.62269379 22.61275446 -9.4140625 22.5 C-13.46439304 21.9836232 -15.65073074 20.12411808 -18.1875 17.0625 C-19.73720573 13.39214432 -20.06733655 10.13773603 -19.375 6.25 C-17.76576503 3.14647542 -16.37152733 1.03298576 -13.625 -1.125 C-8.40862133 -2.57399408 -4.72603481 -2.45053657 0 0 Z M-16.375 4.25 C-17.98229993 7.46459986 -17.99430855 10.77388103 -17.375 14.25 C-15.08300597 17.21050874 -15.08300597 17.21050874 -12.375 19.25 C-12.045 19.58 -11.715 19.91 -11.375 20.25 C-8.44271337 20.54322866 -6.23008117 20.75004247 -3.375 20.25 C-0.41449126 17.95800597 -0.41449126 17.95800597 1.625 15.25 C1.955 14.92 2.285 14.59 2.625 14.25 C3.15672375 8.44106981 3.15672375 8.44106981 0.75 3.3125 C-2.5051946 0.15304642 -4.79913238 -0.08421243 -9.3359375 -0.04296875 C-12.50634567 0.41254967 -14.1942402 2.00315657 -16.375 4.25 Z " fill="#E9AC09" transform="translate(39.375,11.75)"/>
<path xmlns="http://www.w3.org/2000/svg" d="M0 0 C3.96 0 7.92 0 12 0 C12 1.98 12 3.96 12 6 C8.04 6 4.08 6 0 6 C0 4.02 0 2.04 0 0 Z " fill="#054A72" transform="translate(26,50)"/>
<path xmlns="http://www.w3.org/2000/svg" d="M0 0 C0.99 0 1.98 0 3 0 C1.4169423 4.2742558 -1.50568404 6.26531794 -5 9 C-6.37562854 7.71034824 -7.70766393 6.37310707 -9 5 C-9 4.34 -9 3.68 -9 3 C-8.2575 3.2475 -7.515 3.495 -6.75 3.75 C-5.8425 3.8325 -4.935 3.915 -4 4 C-1.85410577 2.10413616 -1.85410577 2.10413616 0 0 Z " fill="#BE104B" transform="translate(35,18)"/>
<path xmlns="http://www.w3.org/2000/svg" d="M0 0 C-1.52708963 3.43595166 -3.59927045 6.11912454 -6 9 C-5.38983051 3.50847458 -5.38983051 3.50847458 -3.5625 1.125 C-2 0 -2 0 0 0 Z " fill="#E7DEC8" transform="translate(28,13)"/>
</svg>
